<svg width="34" height="33" viewBox="0 0 34 33" fill="none" xmlns="http://www.w3.org/2000/svg">
<g clip-path="url(#clip0_348_7583)">
<path d="M29.4292 32.9944C28.371 32.9944 27.3456 32.6358 26.5276 31.9795C25.7096 31.3232 25.1497 30.4099 24.9433 29.3952C24.7369 28.3806 24.8968 27.3273 25.3957 26.415C25.8946 25.5026 26.7016 24.7876 27.6793 24.3919C28.6569 23.9961 29.7447 23.944 30.7572 24.2446C31.7697 24.5451 32.6443 25.1796 33.232 26.0399C33.8196 26.9003 34.0839 27.9332 33.9799 28.9628C33.8758 29.9923 33.4098 30.9547 32.6613 31.686C32.2377 32.102 31.734 32.4319 31.1792 32.6564C30.6244 32.881 30.0296 32.9959 29.4292 32.9944Z" fill="white"/>
<path d="M4.57653 9.15284C3.67203 9.15253 2.78791 8.89015 2.03584 8.39886C1.28376 7.90757 0.697464 7.2094 0.350994 6.39252C0.00452455 5.57564 -0.0865767 4.6767 0.0891964 3.80923C0.264969 2.94176 0.699733 2.14467 1.33858 1.51864C2.19671 0.680058 3.36034 0.208984 4.57362 0.208984C5.78691 0.208984 6.95053 0.680058 7.80867 1.51864C8.23371 1.93388 8.57089 2.42695 8.80094 2.96965C9.03099 3.51236 9.1494 4.09407 9.1494 4.68154C9.1494 5.26901 9.03099 5.85072 8.80094 6.39343C8.57089 6.93613 8.23371 7.4292 7.80867 7.84444C7.38535 8.26087 6.88165 8.59097 6.32682 8.81557C5.77198 9.04017 5.17704 9.15481 4.57653 9.15284Z" fill="white"/>
<path d="M29.223 9.01939C28.3185 9.01908 27.4344 8.75671 26.6823 8.26542C25.9302 7.77413 25.3439 7.07595 24.9975 6.25907C24.651 5.44219 24.5599 4.54325 24.7357 3.67578C24.9115 2.80831 25.3462 2.01122 25.9851 1.38519C26.5168 0.864118 27.1718 0.479356 27.892 0.265012C28.6122 0.0506674 29.3754 0.0133618 30.1139 0.156402C30.8524 0.299442 31.5434 0.618409 32.1257 1.08503C32.7079 1.55165 33.1634 2.1515 33.4518 2.83142C33.7402 3.51134 33.8525 4.25032 33.7789 4.98286C33.7053 5.71539 33.4479 6.41885 33.0297 7.03087C32.6114 7.64289 32.0452 8.14457 31.3812 8.49144C30.7172 8.83831 29.9759 9.01965 29.223 9.01939Z" fill="white"/>
<path d="M4.69688 32.9941C3.79271 32.9946 2.90868 32.733 2.1565 32.2425C1.40433 31.7519 0.817763 31.0543 0.470933 30.238C0.124103 29.4216 0.0325717 28.523 0.207906 27.6558C0.383241 26.7885 0.817572 25.9916 1.45601 25.3656C1.65298 25.174 1.86937 25.0024 2.10186 24.8536C2.18041 24.7996 2.25023 24.7569 2.32587 24.7143C2.4946 24.6175 2.66334 24.5322 2.82044 24.4611C2.90771 24.4241 2.99499 24.3843 3.08808 24.3502C3.27257 24.2816 3.46102 24.2236 3.65247 24.1767L3.76884 24.1454L3.83866 24.1283L4.85689 24.0601C4.98489 24.0601 5.12454 24.08 5.27 24.0999H5.32818H5.45619H5.49691H5.54346H5.58419H5.8082C6.69604 24.093 7.57359 23.9133 8.38972 23.5715C9.20585 23.2297 9.94424 22.7325 10.5619 22.1088C11.1822 21.4918 11.6704 20.7598 11.9976 19.9558C12.3248 19.1519 12.4845 18.2922 12.4674 17.4271V17.3787V17.3247C12.4597 17.2766 12.4548 17.2282 12.4528 17.1796C12.4528 17.1227 12.447 17.0658 12.4354 17.0089V16.9094C12.4354 16.8212 12.4179 16.7387 12.4121 16.6534L12.4878 15.655C12.4942 15.63 12.502 15.6053 12.511 15.5811L12.5285 15.5185C12.5724 15.3253 12.6298 15.1352 12.7001 14.9496C12.7323 14.8606 12.7692 14.7733 12.8107 14.688C12.883 14.5285 12.9636 14.3728 13.0521 14.2215C13.0958 14.1504 13.1394 14.0793 13.1889 14.0082C13.3438 13.7811 13.5201 13.5688 13.7154 13.3739C14.575 12.535 15.7401 12.0644 16.9546 12.0654C18.1691 12.0665 19.3334 12.5392 20.1914 13.3796C21.0493 14.2199 21.5307 15.3591 21.5297 16.5465C21.5286 17.7339 21.0451 18.8722 20.1855 19.7111C19.9871 19.9011 19.7708 20.0725 19.5397 20.223C19.4641 20.2742 19.3913 20.3169 19.3186 20.3567C19.159 20.4515 18.9939 20.5369 18.824 20.6127C18.7338 20.6525 18.6437 20.6924 18.5593 20.7236C18.3783 20.7908 18.1926 20.845 18.0036 20.8858L17.8931 20.9142L17.8204 20.937L16.7905 21.0081C16.6712 21.0081 16.5432 20.9853 16.4094 20.9683H16.3192H16.1912H16.1563H16.1039H15.8392C14.0557 20.9915 12.3541 21.704 11.1064 22.9501C9.85856 24.1962 9.16598 25.8745 9.17998 27.6183V27.6695V27.7179C9.18771 27.7659 9.19257 27.8143 9.19453 27.8629C9.19453 27.9227 9.19453 27.9767 9.21198 28.0336C9.21484 28.086 9.22067 28.1382 9.22944 28.19C9.22944 28.2583 9.22944 28.3266 9.22944 28.3948V28.4176L9.15671 29.3761C9.15671 29.396 9.11889 29.507 9.11016 29.5411C9.06728 29.7343 9.01091 29.9243 8.94143 30.11C8.91085 30.1964 8.8749 30.2809 8.83379 30.3631C8.75421 30.5333 8.66585 30.6994 8.56905 30.8609C8.52541 30.9291 8.47595 31.0088 8.42359 31.0827C8.27121 31.3065 8.0968 31.5151 7.90284 31.7056C7.051 32.5335 5.89793 32.9969 4.69688 32.9941Z" fill="#E6251B"/>
<path d="M17.0495 32.994C16.1459 32.994 15.2626 32.7322 14.511 32.2418C13.7595 31.7513 13.1733 31.0542 12.8266 30.2384C12.4799 29.4226 12.3882 28.5247 12.5629 27.6579C12.7377 26.7912 13.1711 25.9945 13.8086 25.3684C14.0084 25.1759 14.2266 25.0025 14.4602 24.8507C14.5272 24.8052 14.5999 24.7625 14.6755 24.7199C14.8367 24.6254 15.0028 24.539 15.173 24.461L15.4377 24.3501C15.6185 24.2867 15.8031 24.2345 15.9905 24.1937L16.1709 24.1425L17.2065 24.0685C17.3287 24.0685 17.4597 24.0913 17.5964 24.1083H17.6749H17.8117H17.8611H17.8931H17.9368H18.1637C19.9456 24.0828 21.645 23.3693 22.8909 22.1235C24.1368 20.8777 24.8282 19.2006 24.8141 17.4583V17.2506L24.7967 17.2279C24.795 17.2204 24.795 17.2126 24.7967 17.2051V17.0572L24.7792 16.915C24.7792 16.8354 24.7589 16.7586 24.756 16.6789L24.8258 15.7118C24.8258 15.6862 24.8665 15.5668 24.8752 15.5327C24.9111 15.346 24.9588 15.1618 25.0178 14.9809C25.0508 14.8926 25.0887 14.8062 25.1312 14.722C25.2095 14.5545 25.2969 14.3911 25.3931 14.2328L25.4134 14.2015C25.4484 14.1418 25.4833 14.0849 25.524 14.028C25.6802 13.7994 25.8574 13.5852 26.0535 13.388C26.9121 12.5493 28.0762 12.0781 29.29 12.0781C30.5037 12.0781 31.6678 12.5493 32.5265 13.388C33.3815 14.229 33.8615 15.3666 33.8615 16.5523C33.8615 17.7381 33.3815 18.8757 32.5265 19.7167C32.3255 19.9051 32.1085 20.0763 31.8777 20.2287L31.7264 20.3225L31.6479 20.3709C31.4915 20.4608 31.3303 20.5425 31.165 20.6155C31.0719 20.6581 30.9875 20.6951 30.8973 20.7293C30.7139 20.7943 30.5264 20.8475 30.3358 20.8885L30.2195 20.9227L30.1496 20.9397L29.1314 21.0108C28.9831 21.0108 28.823 20.9824 28.6659 20.9625H28.5321H28.5088H28.4216H28.1947C26.4082 20.982 24.7026 21.6938 23.4524 22.9417C22.2022 24.1896 21.5097 25.8716 21.5267 27.6182V27.6694V27.7178C21.5296 27.769 21.5296 27.8202 21.5267 27.8714C21.5267 27.9226 21.5267 27.9766 21.5413 28.025C21.5558 28.0733 21.5413 28.1217 21.5413 28.1757C21.5525 28.2511 21.5593 28.3271 21.5616 28.4033L21.5267 29.3846L21.4831 29.5382C21.4391 29.7311 21.3827 29.9211 21.3144 30.107C21.2853 30.1867 21.2474 30.2663 21.2125 30.346L21.198 30.3744C21.1219 30.5364 21.0364 30.694 20.942 30.8466C20.8954 30.9234 20.8518 30.9973 20.8023 31.0684C20.3879 31.6673 19.8284 32.1566 19.1735 32.4925C18.5187 32.8286 17.789 33.0008 17.0495 32.994Z" fill="white"/>
<path d="M4.69759 20.9258C3.79259 20.9266 2.90767 20.665 2.1547 20.1742C1.40173 19.6833 0.814534 18.9852 0.467344 18.1681C0.120153 17.351 0.0285611 16.4516 0.204149 15.5836C0.379736 14.7156 0.814618 13.918 1.45381 13.2916C1.65364 13.1011 1.87079 12.9288 2.10257 12.7768L2.32658 12.6374C2.48367 12.5464 2.64659 12.4639 2.81823 12.3842C2.90551 12.3473 2.99279 12.3075 3.08879 12.2733C3.2674 12.2095 3.45011 12.1573 3.63572 12.1169L3.75209 12.0856C3.77205 12.0786 3.79246 12.0729 3.81318 12.0685L4.84887 11.9946C4.98269 11.9946 5.13979 12.0202 5.28234 12.0401H5.31434H5.45107H5.49471H5.53835H5.81763C6.704 12.032 7.5799 11.8519 8.39445 11.5101C9.209 11.1683 9.94597 10.6717 10.5626 10.049C11.1825 9.43122 11.6701 8.69864 11.9968 7.89423C12.3235 7.08982 12.4828 6.22976 12.4652 5.36442V5.31607V5.26772C12.4549 5.21326 12.4491 5.1581 12.4477 5.10274V4.96622L12.4099 4.83538C12.4099 4.75574 12.3896 4.6704 12.3866 4.58792L12.4565 3.64929V3.62653V3.60947C12.4565 3.58671 12.5001 3.46156 12.5001 3.46156C12.5443 3.26873 12.6007 3.07874 12.6688 2.89269C12.7008 2.80736 12.7416 2.72203 12.7823 2.6367C12.8587 2.46827 12.9461 2.30486 13.0441 2.14748V2.12188C13.0849 2.05646 13.1227 1.99104 13.1692 1.92846C13.322 1.70328 13.4964 1.4928 13.69 1.29987C14.5495 0.457994 15.7159 -0.0155634 16.9325 -0.0166303C18.1492 -0.0176971 19.3164 0.453814 20.1775 1.29418C21.0386 2.13454 21.523 3.27492 21.524 4.46444C21.5251 5.65395 21.0429 6.79518 20.1833 7.63705C19.9846 7.82591 19.7684 7.99636 19.5375 8.14618C19.4677 8.19454 19.4066 8.22867 19.3455 8.26565L19.3106 8.28556C19.1418 8.38227 18.9789 8.4676 18.8218 8.5387C18.7287 8.57852 18.6444 8.61835 18.5571 8.64963C18.3735 8.71481 18.186 8.76896 17.9956 8.81176C17.9553 8.82012 17.9155 8.83056 17.8763 8.84305L17.8036 8.86296L16.7883 8.93122C16.6603 8.93122 16.5235 8.90847 16.381 8.8914H16.317H16.1861H16.1017H16.0552H15.8282C14.0458 8.91688 12.346 9.63078 11.1 10.8772C9.85402 12.1237 9.16299 13.8015 9.17778 15.5443V15.5927V15.6439C9.18565 15.6938 9.1905 15.7441 9.19232 15.7946C9.19232 15.8486 9.19232 15.8998 9.20687 15.951C9.22142 16.0022 9.20687 16.0478 9.22433 16.099C9.23447 16.1725 9.2403 16.2466 9.24178 16.3208L9.16905 17.2964C9.16363 17.3223 9.15683 17.348 9.14869 17.3732L9.1225 17.4614C9.08088 17.6546 9.02547 17.8447 8.95668 18.0303C8.92468 18.1156 8.88104 18.2038 8.84031 18.2919C8.76637 18.4562 8.68383 18.6166 8.59303 18.7726C8.54648 18.8523 8.50284 18.9234 8.45338 18.9916C8.29923 19.2192 8.12289 19.4316 7.92682 19.6259C7.50345 20.0415 7.00015 20.3711 6.44593 20.5956C5.89171 20.8202 5.29751 20.9353 4.69759 20.9343V20.9258Z" fill="white"/>
</g>
<defs>
<clipPath id="clip0_348_7583">
<rect width="34" height="33" fill="white"/>
</clipPath>
</defs>
</svg>
