<svg width="22" height="23" viewBox="0 0 22 23" fill="none" xmlns="http://www.w3.org/2000/svg">
<path d="M16.7401 11.3003L11.6361 16.4417C11.4551 16.6246 11.3535 16.8715 11.3535 17.1289C11.3535 17.3862 11.4551 17.6331 11.6361 17.816C11.7253 17.9061 11.8316 17.9776 11.9486 18.0265C12.0657 18.0753 12.1912 18.1004 12.3181 18.1004C12.4449 18.1004 12.5705 18.0753 12.6876 18.0265C12.8046 17.9776 12.9108 17.9061 13.0001 17.816L18.7868 11.9875C18.9678 11.8047 19.0693 11.5579 19.0693 11.3007C19.0693 11.0435 18.9678 10.7967 18.7868 10.6139L13.0001 4.78541C12.9108 4.6953 12.8046 4.62376 12.6876 4.57495C12.5705 4.52613 12.4449 4.50101 12.3181 4.50101C12.1912 4.50101 12.0657 4.52613 11.9486 4.57495C11.8316 4.62376 11.7253 4.6953 11.6361 4.78541C11.4553 4.96826 11.3539 5.215 11.3539 5.47215C11.3539 5.72929 11.4553 5.97607 11.6361 6.15893L16.7401 11.3003Z" fill="white"/>
<path d="M9.02525 11.3003L3.92124 16.4417C3.74022 16.6246 3.63867 16.8715 3.63867 17.1289C3.63867 17.3862 3.74022 17.6331 3.92123 17.816C4.01049 17.9061 4.11673 17.9776 4.23379 18.0265C4.35085 18.0753 4.4764 18.1004 4.60323 18.1004C4.73006 18.1004 4.85566 18.0753 4.97272 18.0265C5.08977 17.9776 5.19597 17.9061 5.28522 17.816L11.0719 11.9875C11.2529 11.8047 11.3545 11.5579 11.3545 11.3007C11.3545 11.0435 11.2529 10.7967 11.0719 10.6139L5.28522 4.78541C5.19597 4.6953 5.08978 4.62376 4.97272 4.57495C4.85566 4.52613 4.73006 4.50101 4.60323 4.50101C4.4764 4.50101 4.35085 4.52613 4.23379 4.57495C4.11673 4.62376 4.01049 4.6953 3.92124 4.78541C3.74045 4.96826 3.63907 5.215 3.63907 5.47215C3.63907 5.72929 3.74045 5.97607 3.92124 6.15893L9.02525 11.3003Z" fill="white"/>
</svg>
