<svg width="22" height="23" viewBox="0 0 22 23" fill="none" xmlns="http://www.w3.org/2000/svg">
<path d="M5.26186 11.6997L10.3659 6.55829C10.5469 6.3754 10.6484 6.12847 10.6484 5.87115C10.6484 5.61383 10.5469 5.3669 10.3659 5.18401C10.2766 5.0939 10.1704 5.02236 10.0533 4.97355C9.93626 4.92474 9.81071 4.89961 9.68388 4.89961C9.55705 4.89961 9.43145 4.92474 9.31439 4.97355C9.19733 5.02236 9.09114 5.0939 9.00188 5.18401L3.21516 11.0125C3.03419 11.1953 2.93264 11.4421 2.93264 11.6993C2.93264 11.9565 3.03419 12.2033 3.21516 12.3861L9.00188 18.2146C9.09114 18.3047 9.19733 18.3762 9.31439 18.4251C9.43145 18.4739 9.55705 18.499 9.68388 18.499C9.81071 18.499 9.93626 18.4739 10.0533 18.4251C10.1704 18.3762 10.2766 18.3047 10.3659 18.2146C10.5467 18.0317 10.648 17.785 10.648 17.5279C10.648 17.2707 10.5467 17.0239 10.3659 16.8411L5.26186 11.6997Z" fill="white"/>
<path d="M12.9767 11.6997L18.0807 6.55829C18.2617 6.3754 18.3633 6.12847 18.3633 5.87115C18.3633 5.61383 18.2617 5.3669 18.0807 5.18401C17.9915 5.0939 17.8852 5.02236 17.7682 4.97355C17.6511 4.92474 17.5256 4.89961 17.3987 4.89961C17.2719 4.89961 17.1463 4.92474 17.0292 4.97355C16.9122 5.02236 16.806 5.0939 16.7167 5.18401L10.93 11.0125C10.749 11.1953 10.6475 11.4421 10.6475 11.6993C10.6475 11.9565 10.749 12.2033 10.93 12.3861L16.7167 18.2146C16.806 18.3047 16.9122 18.3762 17.0292 18.4251C17.1463 18.4739 17.2719 18.499 17.3987 18.499C17.5256 18.499 17.6511 18.4739 17.7682 18.4251C17.8852 18.3762 17.9915 18.3047 18.0807 18.2146C18.2615 18.0317 18.3629 17.785 18.3629 17.5279C18.3629 17.2707 18.2615 17.0239 18.0807 16.8411L12.9767 11.6997Z" fill="white"/>
</svg>
