<svg width="20" height="20" viewBox="0 0 20 20" fill="none" xmlns="http://www.w3.org/2000/svg">
<path d="M3 14.2005C3 13.1222 3 12.583 3.24272 12.1869C3.37854 11.9652 3.56488 11.7789 3.78651 11.6431C4.18259 11.4004 4.72177 11.4004 5.80013 11.4004C6.87849 11.4004 7.41767 11.4004 7.81375 11.6431C8.03538 11.7789 8.22172 11.9652 8.35754 12.1869C8.60026 12.583 8.60026 13.1222 8.60026 14.2005C8.60026 15.2789 8.60026 15.8181 8.35754 16.2142C8.22172 16.4358 8.03538 16.6221 7.81375 16.7579C7.41767 17.0007 6.87849 17.0007 5.80013 17.0007C4.72177 17.0007 4.18259 17.0007 3.78651 16.7579C3.56488 16.6221 3.37854 16.4358 3.24272 16.2142C3 15.8181 3 15.2789 3 14.2005Z" stroke="white" stroke-width="1.3"/>
<path d="M11.4004 14.2005C11.4004 13.1222 11.4004 12.583 11.6431 12.1869C11.7789 11.9652 11.9652 11.7789 12.1869 11.6431C12.583 11.4004 13.1222 11.4004 14.2005 11.4004C15.2789 11.4004 15.8181 11.4004 16.2142 11.6431C16.4358 11.7789 16.6221 11.9652 16.7579 12.1869C17.0007 12.583 17.0007 13.1222 17.0007 14.2005C17.0007 15.2789 17.0007 15.8181 16.7579 16.2142C16.6221 16.4358 16.4358 16.6221 16.2142 16.7579C15.8181 17.0007 15.2789 17.0007 14.2005 17.0007C13.1222 17.0007 12.583 17.0007 12.1869 16.7579C11.9652 16.6221 11.7789 16.4358 11.6431 16.2142C11.4004 15.8181 11.4004 15.2789 11.4004 14.2005Z" stroke="white" stroke-width="1.3"/>
<path d="M3 5.80013C3 4.72177 3 4.18259 3.24272 3.78651C3.37854 3.56488 3.56488 3.37854 3.78651 3.24272C4.18259 3 4.72177 3 5.80013 3C6.87849 3 7.41767 3 7.81375 3.24272C8.03538 3.37854 8.22172 3.56488 8.35754 3.78651C8.60026 4.18259 8.60026 4.72177 8.60026 5.80013C8.60026 6.87849 8.60026 7.41767 8.35754 7.81375C8.22172 8.03538 8.03538 8.22172 7.81375 8.35754C7.41767 8.60026 6.87849 8.60026 5.80013 8.60026C4.72177 8.60026 4.18259 8.60026 3.78651 8.35754C3.56488 8.22172 3.37854 8.03538 3.24272 7.81375C3 7.41767 3 6.87849 3 5.80013Z" stroke="white" stroke-width="1.3"/>
<path d="M11.4004 5.80013C11.4004 4.72177 11.4004 4.18259 11.6431 3.78651C11.7789 3.56488 11.9652 3.37854 12.1869 3.24272C12.583 3 13.1222 3 14.2005 3C15.2789 3 15.8181 3 16.2142 3.24272C16.4358 3.37854 16.6221 3.56488 16.7579 3.78651C17.0007 4.18259 17.0007 4.72177 17.0007 5.80013C17.0007 6.87849 17.0007 7.41767 16.7579 7.81375C16.6221 8.03538 16.4358 8.22172 16.2142 8.35754C15.8181 8.60026 15.2789 8.60026 14.2005 8.60026C13.1222 8.60026 12.583 8.60026 12.1869 8.35754C11.9652 8.22172 11.7789 8.03538 11.6431 7.81375C11.4004 7.41767 11.4004 6.87849 11.4004 5.80013Z" stroke="white" stroke-width="1.3"/>
</svg>
