<svg width="20" height="20" viewBox="0 0 20 20" fill="none" xmlns="http://www.w3.org/2000/svg">
<path d="M14.166 9.83773C14.166 9.54965 14.166 9.40565 14.2093 9.27732C14.3353 8.90432 14.6675 8.75965 15.0003 8.60807C15.3743 8.43765 15.5613 8.35248 15.7467 8.33748C15.9571 8.32047 16.1678 8.36582 16.3477 8.46673C16.5861 8.60048 16.7523 8.85473 16.9226 9.06148C17.7088 10.0163 18.1018 10.4938 18.2456 11.0203C18.3617 11.4452 18.3617 11.8895 18.2456 12.3143C18.0358 13.0822 17.3731 13.726 16.8825 14.3218C16.6316 14.6266 16.5061 14.779 16.3477 14.8679C16.1678 14.9688 15.9571 15.0142 15.7467 14.9972C15.5613 14.9822 15.3743 14.897 15.0003 14.7266C14.6675 14.575 14.3353 14.4303 14.2093 14.0573C14.166 13.929 14.166 13.785 14.166 13.4969V9.83773Z" stroke="white" stroke-width="1.3" stroke-linecap="round" stroke-linejoin="round"/>
<path d="M5.83268 9.83779C5.83268 9.47513 5.8225 9.14913 5.52927 8.89413C5.42262 8.80138 5.28122 8.73696 4.99844 8.60813C4.62436 8.43779 4.43731 8.35263 4.25198 8.33763C3.69594 8.29263 3.39678 8.67213 3.07612 9.06163C2.28997 10.0165 1.8969 10.4939 1.75307 11.0204C1.637 11.4453 1.637 11.8896 1.75307 12.3145C1.96285 13.0824 2.62562 13.726 3.11619 14.322C3.42542 14.6975 3.72082 15.0402 4.25198 14.9973C4.43731 14.9823 4.62436 14.897 4.99844 14.7267C5.28122 14.5979 5.42262 14.5335 5.52927 14.4407C5.8225 14.1857 5.83268 13.8598 5.83268 13.497V9.83779Z" stroke="white" stroke-width="1.3" stroke-linecap="round" stroke-linejoin="round"/>
<path d="M16.6673 8.74935V7.49935C16.6673 4.27769 13.6826 1.66602 10.0007 1.66602C6.31875 1.66602 3.33398 4.27769 3.33398 7.49935V8.74935" stroke="white" stroke-width="1.3" stroke-linecap="round" stroke-linejoin="round"/>
<path d="M16.6667 14.584C16.6667 18.334 13.3333 18.334 10 18.334" stroke="white" stroke-width="1.3" stroke-linecap="round" stroke-linejoin="round"/>
</svg>
