<svg width="20" height="20" viewBox="0 0 20 20" fill="none" xmlns="http://www.w3.org/2000/svg">
<path d="M4.16663 5.83301L3.15096 6.51012C2.42287 6.99552 2.05882 7.23822 1.86153 7.60835C1.66423 7.97848 1.6657 8.41351 1.66862 9.28351C1.67214 10.3309 1.68188 11.3982 1.70883 12.4781C1.77278 15.0403 1.80477 16.3213 2.74677 17.2633C3.68877 18.2054 4.98715 18.2378 7.58391 18.3028C9.19943 18.3431 10.8006 18.3431 12.416 18.3028C15.0128 18.2378 16.3112 18.2054 17.2532 17.2633C18.1952 16.3213 18.2272 15.0403 18.2911 12.4781C18.3181 11.3982 18.3278 10.3309 18.3313 9.28351C18.3343 8.41351 18.3357 7.97847 18.1384 7.60835C17.9411 7.23822 17.5771 6.99552 16.8489 6.51012L15.8333 5.83301" stroke="white" stroke-width="1.25" stroke-linejoin="round"/>
<path d="M1.66797 8.33301L7.42882 11.7895C8.68214 12.5415 9.3088 12.9175 10.0013 12.9175C10.6938 12.9175 11.3205 12.5415 12.5738 11.7895L18.3346 8.33301" stroke="white" stroke-width="1.25" stroke-linejoin="round"/>
<path d="M4.16797 10.0003V5.00033C4.16797 3.42898 4.16797 2.6433 4.65613 2.15515C5.14429 1.66699 5.92996 1.66699 7.5013 1.66699H12.5013C14.0727 1.66699 14.8583 1.66699 15.3465 2.15515C15.8347 2.6433 15.8347 3.42898 15.8347 5.00033V10.0003" stroke="white" stroke-width="1.25"/>
<path d="M8.33203 8.33333H11.6654M8.33203 5H11.6654" stroke="white" stroke-width="1.25" stroke-linecap="round" stroke-linejoin="round"/>
</svg>
