<svg width="20" height="20" viewBox="0 0 20 20" fill="none" xmlns="http://www.w3.org/2000/svg">
<path d="M8.33034 1.6845C6.24828 1.59635 4.63974 1.8362 4.63974 1.8362C3.62403 1.90883 1.67752 2.47826 1.67754 5.80384C1.67755 9.10114 1.656 13.1661 1.67754 14.7866C1.67754 15.7767 2.29055 18.0861 4.41235 18.2099C6.99139 18.3604 11.6369 18.3924 13.7683 18.2099C14.3389 18.1777 16.2385 17.7298 16.4789 15.6631C16.728 13.522 16.6784 12.034 16.6784 11.6798" fill="white"/>
<path d="M8.33034 1.6845C6.24829 1.59635 4.63974 1.8362 4.63974 1.8362C3.62403 1.90883 1.67752 2.47826 1.67754 5.80384C1.67755 9.10114 1.656 13.1661 1.67754 14.7866C1.67754 15.7767 2.29055 18.0861 4.41235 18.2099C6.99139 18.3604 11.6369 18.3924 13.7683 18.2099C14.3389 18.1777 16.2385 17.7298 16.4789 15.6631C16.728 13.522 16.6784 12.034 16.6784 11.6798" stroke="white" stroke-width="1.3" stroke-linecap="round" stroke-linejoin="round"/>
<path d="M10.0193 18.3155C12.1013 18.4036 13.7099 18.1638 13.7099 18.1638C14.7256 18.0912 16.6721 17.5217 16.6721 14.1962C16.6721 10.8989 16.6936 6.83386 16.6721 5.21336C16.6721 4.22328 16.0591 1.91386 13.9373 1.79011C11.3582 1.63961 6.71269 1.60761 4.58128 1.79011C4.01069 1.82228 2.11111 2.2702 1.87069 4.33695C1.62161 6.47803 1.67119 7.96603 1.67119 8.32019" fill="white"/>
<path d="M10.0193 18.3155C12.1013 18.4036 13.7099 18.1638 13.7099 18.1638C14.7256 18.0912 16.6721 17.5217 16.6721 14.1962C16.6721 10.8989 16.6936 6.83386 16.6721 5.21336C16.6721 4.22328 16.0591 1.91386 13.9373 1.79011C11.3582 1.63961 6.71269 1.60761 4.58128 1.79011C4.01069 1.82228 2.11111 2.2702 1.87069 4.33695C1.62161 6.47803 1.67119 7.96603 1.67119 8.32019" stroke="white" stroke-width="1.3" stroke-linecap="round" stroke-linejoin="round"/>
<path d="M18.3335 5.84635C18.3335 8.14754 16.4663 10.0131 14.1629 10.0131C11.8594 10.0131 9.99219 8.14754 9.99219 5.84635C9.99219 3.54517 11.8594 1.67969 14.1629 1.67969C16.4663 1.67969 18.3335 3.54517 18.3335 5.84635Z" fill="#1B2939" stroke="#1B2939" stroke-width="2" stroke-linecap="round"/>
<path d="M18.3335 5.84635C18.3335 8.14754 16.4663 10.0131 14.1629 10.0131C11.8594 10.0131 9.99219 8.14754 9.99219 5.84635C9.99219 3.54517 11.8594 1.67969 14.1629 1.67969C16.4663 1.67969 18.3335 3.54517 18.3335 5.84635Z" fill="white"/>
<path d="M5.81641 10.8467H9.14971" stroke="#1B2939" stroke-width="1.3" stroke-linecap="round"/>
<path d="M5.81641 14.1797H12.483" stroke="#1B2939" stroke-width="1.3" stroke-linecap="round"/>
<path d="M12.4844 5.84668L13.5006 7.00049L15.8177 4.59668" stroke="#1B2939" stroke-width="1.3" stroke-linecap="round" stroke-linejoin="round"/>
</svg>
