<svg width="20" height="20" viewBox="0 0 20 20" fill="none" xmlns="http://www.w3.org/2000/svg">
<path d="M5.83464 1.66699C3.53345 1.66699 1.66797 3.53248 1.66797 5.83366C1.66797 7.37592 2.50589 8.72249 3.7513 9.44291V14.8696C3.7513 15.5508 3.7513 15.8915 3.87817 16.1977C4.00504 16.5041 4.24589 16.7449 4.72761 17.2267L5.83464 18.3337L7.59146 16.5768C7.67248 16.4958 7.71303 16.4552 7.74664 16.4113C7.83489 16.2959 7.89144 16.1594 7.91065 16.0153C7.91797 15.9605 7.91797 15.9032 7.91797 15.7886C7.91797 15.6958 7.91797 15.6495 7.91305 15.6044C7.90017 15.4862 7.86216 15.3722 7.80159 15.27C7.77849 15.231 7.75067 15.1939 7.69502 15.1197L6.66797 13.7503L7.2513 12.9726C7.58171 12.532 7.74691 12.3117 7.83244 12.0552C7.91797 11.7986 7.91797 11.5232 7.91797 10.9726V9.44291C9.16339 8.72249 10.0013 7.37592 10.0013 5.83366C10.0013 3.53248 8.13582 1.66699 5.83464 1.66699Z" stroke="white" stroke-width="1.3" stroke-linejoin="round"/>
<path d="M5.83203 5.83301H5.83951" stroke="white" stroke-width="1.3" stroke-linecap="round" stroke-linejoin="round"/>
<path d="M10.832 11.667H15.832C16.6086 11.667 16.9969 11.667 17.3032 11.7938C17.7115 11.963 18.036 12.2875 18.2052 12.6958C18.332 13.0022 18.332 13.3904 18.332 14.167C18.332 14.9436 18.332 15.3318 18.2052 15.6382C18.036 16.0465 17.7115 16.371 17.3032 16.5402C16.9969 16.667 16.6086 16.667 15.832 16.667H10.832" stroke="white" stroke-width="1.3" stroke-linecap="round"/>
<path d="M12.5 4.16699H15.8333C16.6099 4.16699 16.9982 4.16699 17.3045 4.29386C17.7128 4.46302 18.0373 4.78748 18.2065 5.19585C18.3333 5.50214 18.3333 5.89043 18.3333 6.66699C18.3333 7.44356 18.3333 7.83184 18.2065 8.13813C18.0373 8.54649 17.7128 8.87099 17.3045 9.04016C16.9982 9.16699 16.6099 9.16699 15.8333 9.16699H12.5" stroke="white" stroke-width="1.3" stroke-linecap="round"/>
</svg>
