<svg width="20" height="20" viewBox="0 0 20 20" fill="none" xmlns="http://www.w3.org/2000/svg">
<path d="M2 3V17" stroke="white" stroke-width="1.3" stroke-linecap="round" stroke-linejoin="round"/>
<path d="M5 3V17" stroke="white" stroke-width="1.3" stroke-linecap="round" stroke-linejoin="round"/>
<path d="M18 3V17" stroke="white" stroke-width="1.3" stroke-linecap="round" stroke-linejoin="round"/>
<path d="M9 15.25V4.75C9 3.92504 9 3.51257 9.36611 3.25628C9.73224 3 10.3215 3 11.5 3C12.6785 3 13.2677 3 13.6339 3.25628C14 3.51257 14 3.92504 14 4.75V15.25C14 16.0749 14 16.4874 13.6339 16.7437C13.2677 17 12.6785 17 11.5 17C10.3215 17 9.73224 17 9.36611 16.7437C9 16.4874 9 16.0749 9 15.25Z" stroke="white" stroke-width="1.3" stroke-linecap="round" stroke-linejoin="round"/>
</svg>
