<svg width="20" height="20" viewBox="0 0 20 20" fill="none" xmlns="http://www.w3.org/2000/svg">
<path d="M9.51192 1.74472C9.77208 1.64108 10.0613 1.64108 10.3214 1.74472C11.1601 2.07871 11.3239 3.36486 12.3135 3.43646C13.0103 3.48688 13.6942 2.90597 14.3934 3.08011C14.6754 3.15035 14.919 3.33015 15.0717 3.5808C15.5393 4.34886 14.9358 5.47776 15.6986 6.11506C16.2286 6.55763 17.1043 6.50036 17.565 7.04291C17.759 7.27144 17.8543 7.56952 17.8294 7.87008C17.7557 8.76416 16.6158 9.32333 16.8663 10.2869C17.0396 10.9539 17.7711 11.4228 17.8294 12.1306C17.8543 12.4312 17.759 12.7292 17.565 12.9577C16.986 13.6394 15.734 13.4149 15.373 14.3388C15.1195 14.9873 15.445 15.8067 15.0717 16.4198C14.919 16.6705 14.6754 16.8503 14.3934 16.9206C13.5252 17.1367 12.6439 16.2041 11.8084 16.7302C11.2119 17.1057 10.9982 17.9866 10.3214 18.2559C10.0613 18.3596 9.77208 18.3596 9.51192 18.2559C8.83517 17.9866 8.62142 17.1057 8.02491 16.7302C7.19976 16.2107 6.29344 17.1331 5.43993 16.9206C5.15789 16.8503 4.91433 16.6705 4.76171 16.4198C4.29405 15.6518 4.89753 14.5228 4.13475 13.8856C3.60485 13.443 2.72912 13.5003 2.26837 12.9577C2.07434 12.7292 1.97903 12.4312 2.00388 12.1306C2.06238 11.4228 2.79367 10.9539 2.96708 10.2869C3.21507 9.33341 2.0767 8.75108 2.00388 7.87008C1.97903 7.56952 2.07434 7.27144 2.26837 7.04291C2.8473 6.36103 4.09916 6.58577 4.46032 5.66185C4.71385 5.01333 4.3884 4.19388 4.76171 3.5808C4.91433 3.33015 5.15789 3.15035 5.43993 3.08011C6.13921 2.90597 6.82298 3.48688 7.51982 3.43646C8.50942 3.36488 8.67325 2.07871 9.51192 1.74472Z" stroke="white" stroke-width="1.3" stroke-linejoin="round"/>
<path d="M13 8L8.875 12L7 10.1818" stroke="white" stroke-width="1.3" stroke-linecap="round" stroke-linejoin="round"/>
</svg>
