<svg width="20" height="20" viewBox="0 0 20 20" fill="none" xmlns="http://www.w3.org/2000/svg">
<path d="M12.9154 5.41667C12.9154 7.0275 11.6095 8.33333 9.9987 8.33333C8.38786 8.33333 7.08203 7.0275 7.08203 5.41667C7.08203 3.80583 8.38786 2.5 9.9987 2.5C11.6095 2.5 12.9154 3.80583 12.9154 5.41667Z" stroke="white" stroke-width="1.3"/>
<path d="M18.3333 14.5837C18.3333 16.1945 17.0275 17.5003 15.4167 17.5003C13.8058 17.5003 12.5 16.1945 12.5 14.5837C12.5 12.9728 13.8058 11.667 15.4167 11.667C17.0275 11.667 18.3333 12.9728 18.3333 14.5837Z" stroke="white" stroke-width="1.3"/>
<path d="M7.5013 14.5837C7.5013 16.1945 6.19547 17.5003 4.58464 17.5003C2.9738 17.5003 1.66797 16.1945 1.66797 14.5837C1.66797 12.9728 2.9738 11.667 4.58464 11.667C6.19547 11.667 7.5013 12.9728 7.5013 14.5837Z" stroke="white" stroke-width="1.3"/>
</svg>
