<svg width="20" height="20" viewBox="0 0 20 20" fill="none" xmlns="http://www.w3.org/2000/svg">
<path d="M9.99999 18C14.4183 18 18 14.4183 18 9.99999C18 5.58172 14.4183 2 9.99999 2C5.58172 2 2 5.58172 2 9.99999C2 14.4183 5.58172 18 9.99999 18Z" stroke="white" stroke-width="1.3" stroke-linecap="round" stroke-linejoin="round"/>
<path d="M7.67188 7.59967C7.85996 7.06501 8.2312 6.61416 8.71984 6.32698C9.20848 6.0398 9.78299 5.93483 10.3416 6.03064C10.9002 6.12646 11.4069 6.41689 11.7719 6.8505C12.1369 7.2841 12.3367 7.83289 12.3359 8.39967C12.3359 9.99967 9.93587 10.7997 9.93587 10.7997" stroke="white" stroke-width="1.3" stroke-linecap="round" stroke-linejoin="round"/>
<path d="M10 14H10.007" stroke="white" stroke-width="1.3" stroke-linecap="round" stroke-linejoin="round"/>
</svg>
