<svg width="20" height="20" viewBox="0 0 20 20" fill="none" xmlns="http://www.w3.org/2000/svg">
<path d="M12.9173 10.0001C12.9173 11.6109 11.6115 12.9168 10.0007 12.9168C8.38982 12.9168 7.08398 11.6109 7.08398 10.0001C7.08398 8.38927 8.38982 7.08344 10.0007 7.08344C11.6115 7.08344 12.9173 8.38927 12.9173 10.0001Z" stroke="#00244D" stroke-width="1.3" stroke-linecap="round" stroke-linejoin="round"/>
<path d="M17.5085 11.7464C17.9434 11.6292 18.1609 11.5705 18.2468 11.4583C18.3327 11.3463 18.3327 11.1658 18.3327 10.8051V9.19368C18.3327 8.83293 18.3327 8.65251 18.2468 8.54043C18.1608 8.42826 17.9434 8.36959 17.5085 8.25233C15.8832 7.814 14.8659 6.11477 15.2854 4.50007C15.4008 4.056 15.4584 3.83398 15.4033 3.70375C15.3483 3.57353 15.1903 3.48379 14.8741 3.30431L13.4368 2.48829C13.1267 2.31217 12.9716 2.22411 12.8324 2.24286C12.6932 2.26161 12.5362 2.41829 12.222 2.73162C11.006 3.94474 8.99401 3.94469 7.77796 2.73154C7.46387 2.4182 7.30683 2.26154 7.16762 2.24278C7.02842 2.22403 6.87332 2.31209 6.56312 2.4882L5.12588 3.30423C4.80979 3.4837 4.65174 3.57343 4.59666 3.70363C4.54158 3.83384 4.59924 4.0559 4.71456 4.50001C5.13382 6.11476 4.11578 7.81403 2.4902 8.25234C2.05528 8.36959 1.83782 8.42826 1.75192 8.54034C1.66602 8.65251 1.66602 8.83293 1.66602 9.19368V10.8051C1.66602 11.1658 1.66602 11.3463 1.75192 11.4583C1.83781 11.5705 2.05527 11.6292 2.4902 11.7464C4.11552 12.1848 5.13275 13.884 4.71328 15.4987C4.59792 15.9428 4.54024 16.1648 4.59531 16.295C4.6504 16.4253 4.80845 16.515 5.12456 16.6944L6.56181 17.5105C6.87202 17.6866 7.02713 17.7747 7.16635 17.7559C7.30556 17.7372 7.46258 17.5804 7.77661 17.2671C8.99326 16.053 11.0067 16.0529 12.2234 17.267C12.5374 17.5804 12.6944 17.7371 12.8337 17.7558C12.9728 17.7746 13.128 17.6865 13.4382 17.5104L14.8754 16.6943C15.1916 16.5149 15.3497 16.4252 15.4047 16.2949C15.4598 16.1647 15.4021 15.9427 15.2867 15.4986C14.867 13.884 15.8834 12.1848 17.5085 11.7464Z" stroke="#00244D" stroke-width="1.3" stroke-linecap="round" stroke-linejoin="round"/>
</svg>
