<svg width="18" height="18" viewBox="0 0 18 18" fill="none" xmlns="http://www.w3.org/2000/svg">
<g clip-path="url(#clip0_348_7443)">
<path d="M9 16.5003C4.85786 16.5003 1.5 13.1424 1.5 9.0003C1.5 6.9059 2.35849 5.01201 3.74278 3.65132M9 16.5003C8.27775 15.9651 8.39302 15.3419 8.75535 14.7188C9.31245 13.7609 9.31245 13.7609 9.31245 12.4836C9.31245 11.2064 10.0714 10.6075 12.75 11.1431C13.9535 11.3839 14.8306 9.72098 16.393 10.2701M9 16.5003C12.7093 16.5003 15.7897 13.8075 16.393 10.2701M3.74278 3.65132C4.37974 3.71854 4.73638 4.05978 5.32872 4.68567C6.4533 5.87394 7.57785 5.97309 8.32762 5.577C9.45217 4.98288 8.50717 4.02053 9.82702 3.49754C10.6362 3.17694 10.7904 2.3373 10.4074 1.63215M3.74278 3.65132C5.09621 2.32096 6.95227 1.50031 9 1.50031C9.48105 1.50031 9.95152 1.5456 10.4074 1.63215M16.393 10.2701C16.4633 9.85733 16.5 9.43313 16.5 9.0003C16.5 5.33923 13.8768 2.29084 10.4074 1.63215" stroke="#00244D" stroke-width="1.2" stroke-linecap="round" stroke-linejoin="round"/>
</g>
<defs>
<clipPath id="clip0_348_7443">
<rect width="18" height="18" fill="white"/>
</clipPath>
</defs>
</svg>
