<svg width="20" height="21" viewBox="0 0 20 21" fill="none" xmlns="http://www.w3.org/2000/svg">
<path d="M2.10892 12.4711C1.93171 13.5987 2.72399 14.3813 3.69403 14.7713C7.41299 16.2666 12.5883 16.2666 16.3072 14.7713C17.2773 14.3813 18.0696 13.5987 17.8924 12.4711C17.7835 11.7782 17.245 11.2012 16.846 10.6378C16.3234 9.89068 16.2715 9.07584 16.2714 8.20894C16.2714 4.85868 13.4639 2.14276 10.0007 2.14276C6.53743 2.14276 3.72993 4.85868 3.72993 8.20894C3.72984 9.07584 3.67792 9.89068 3.15533 10.6378C2.75635 11.2012 2.21783 11.7782 2.10892 12.4711Z" stroke="#00244D" stroke-width="1.3" stroke-linecap="round" stroke-linejoin="round"/>
<path d="M14.9997 7.6191C16.5777 7.6191 17.8569 6.33992 17.8569 4.76196C17.8569 3.184 16.5777 1.90482 14.9997 1.90482C13.4218 1.90482 12.1426 3.184 12.1426 4.76196C12.1426 6.33992 13.4218 7.6191 14.9997 7.6191Z" fill="#FF9300" stroke="white" stroke-width="1.3"/>
<path d="M7.5 17.9767C8.16344 18.495 9.03958 18.81 10 18.81C10.9604 18.81 11.8366 18.495 12.5 17.9767" stroke="#00244D" stroke-width="1.3" stroke-linecap="round" stroke-linejoin="round"/>
</svg>
