<svg width="17" height="16" viewBox="0 0 17 16" fill="none" xmlns="http://www.w3.org/2000/svg">
<path d="M5.83398 14.6667V12.6667C5.83398 11.4096 5.83398 10.7811 6.22451 10.3905C6.61503 10 7.24358 10 8.50065 10C9.75772 10 10.3863 10 10.7768 10.3905C11.1673 10.7811 11.1673 11.4096 11.1673 12.6667V14.6667" stroke="#0468B4" stroke-width="1.2" stroke-linecap="round" stroke-linejoin="round"/>
<path d="M7.16602 4.66699H9.83268" stroke="#0468B4" stroke-width="1.2" stroke-linecap="round" stroke-linejoin="round"/>
<path d="M2.5 7.90527C2.5 4.85433 2.5 3.32885 3.42449 2.3623C3.45865 2.32659 3.49359 2.29165 3.52929 2.2575C4.49584 1.33301 6.02133 1.33301 9.07227 1.33301C9.79533 1.33301 10.1437 1.33551 10.4752 1.45925C10.7945 1.57841 11.0619 1.80127 11.5968 2.247L13.0607 3.46695C13.7685 4.05675 14.1223 4.35164 14.3112 4.75478C14.5 5.15792 14.5 5.61856 14.5 6.53984V8.66634C14.5 11.1661 14.5 12.4161 13.8634 13.2923C13.6578 13.5753 13.4089 13.8241 13.1259 14.0297C12.2497 14.6663 10.9998 14.6663 8.5 14.6663C6.00018 14.6663 4.75027 14.6663 3.87405 14.0297C3.59107 13.8241 3.34221 13.5753 3.13661 13.2923C2.5 12.4161 2.5 11.1661 2.5 8.66634V7.90527Z" stroke="#0468B4" stroke-width="1.2" stroke-linecap="round" stroke-linejoin="round"/>
</svg>
